<svg enable-background="new 0 0 511.784 511.784" viewBox="0 0 511.784 511.784" xmlns="http://www.w3.org/2000/svg"><g transform="translate(1 1)" fill="#111318"><path d="m509.078 231.74-3.413-6.827c-2.843-7.819-10.426-12.659-18.797-12.584-1.95-.061-3.949.137-5.949.638-132.267 32.427-202.24 12.8-237.227-9.387s-40.96-49.493-40.96-50.347c-4.267-19.627-23.893-40.107-24.747-40.96-12.425-13.079-11.319-35.162-10.124-44.776.256-.457.504-.896.737-1.304 1.707-3.413 1.707-8.533-1.707-11.093-15.36-14.507-41.813-4.267-54.613.853l-1.288.322c-8.31-3.689-16.782-4.512-22.605-3.735-4.267 0-7.68 3.413-7.68 7.68-.853 27.307-8.533 44.373-12.8 51.2-7.68-.853-16.213.853-23.893 5.12-16.213 7.68-29.013 23.893-34.133 46.08-21.333 86.187-11.093 156.16 29.013 208.213 26.453 34.133 66.56 59.733 117.76 75.947 21.902 6.77 42.314 10.565 58.641 12.688.154.029.309.043.464.06.967.124 1.921.244 2.858.357 16.675 2.248 27.854 2.255 32.757 2.255 8.533 0 16.213-5.973 19.627-14.507l2.56-7.68c.551-2.021.808-4.081.806-6.122.204-5.599-1.682-11.099-5.63-15.298 23.642-.59 45.302-4.397 62.296-8.48.185.019.37.033.555.033.685 0 1.355-.008 1.156-.45 12.163-2.989 21.805-6.066 27.857-8.083 1.6-.48 3.11-1.17 4.508-2.031 6.056-3.729 9.999-10.663 9.999-17.596v-7.68c0-2.23-.342-4.413-.954-6.491 13.649-4.139 26.026-9.085 36.731-13.989h.062c.937-.441 1.858-.878 2.766-1.311 3.738-1.756 7.252-3.495 10.53-5.18 8.106-4.115 14.574-7.727 19.131-10.575 7.68-4.267 11.093-13.653 9.387-22.187l-1.707-7.68c-.584-3.504-1.982-6.595-3.96-9.163 12.748-7.611 23.846-15.446 33.059-22.579 1.582-.325 2.692-1.121 3.328-2.391 10.24-7.68 17.067-13.653 20.48-17.067 6.825-5.973 8.532-15.359 5.119-23.893zm-17.067 11.094c-2.56 2.56-5.973 5.973-11.093 10.24l-10.148-20.295c1.172-.264 2.344-.528 3.526-.8 3.914-.688 7.828-1.494 11.741-2.798 1.707 0 3.413.853 4.267 2.56l3.413 6.827c.001 1.706.001 3.412-1.706 4.266zm-325.12-119.467c5.12 5.12 17.92 20.48 20.48 32.427.853 4.267 8.533 35.84 48.64 61.44 34.51 22.745 100.025 42.602 217.736 19.162l13.828 28.257c-10.946 8.168-24.306 17.062-39.564 25.115-.001 0-.002 0-.003 0-9.676 0-19.435 0-30.717 0-.31 0-.621.027-.93.074-113.831-2.451-169.724-33.268-197.044-59.808-23.893-23.893-29.867-48.64-29.867-58.027 0-.64-.014-1.283-.042-1.927-.851-19.972-14.465-41.62-14.465-42.447-4.232-6.701-3.794-16.318-1.348-26.138 2.525 8.139 5.967 16.171 13.296 21.872zm267.093 197.973c-5.092 3.055-12.352 7.192-21.39 11.656l-5.064-26.163c.507 0 1.002-.001 1.502-.001.069 0 .136.001.205.001h17.92c2.166 0 3.114-.006 4.387-.523 1.51.575 2.44 1.826 2.44 3.083l.853 8.533c0 1.171-.014 2.334-.564 3.23-.096.062-.179.13-.289.184zm-285.013-257.706c-6.266 11.279-15.739 32.677-14.932 52.037.194 7.28 1.802 14.319 5.545 20.496 4.267 5.973 12.8 23.04 12.8 35.84 0 3.413.853 36.693 34.987 69.973 28.346 28.346 86.677 61.299 202.698 64.582l6.737 33.683c-10.654 4.53-22.838 8.992-36.208 12.669-.853 0-.853 0-1.707 0-134.827-24.747-189.44-71.68-212.48-106.667-22.187-34.987-16.213-61.44-16.213-62.293 4.267-19.627-5.12-46.933-5.12-47.787-.853-1.707-1.707-5.973-1.707-6.827-.498-6.978 1.629-15.986 4.5-23.979 2.089-5 4.676-9.69 7.446-13.568 1.568-3.921 1.687-7.838-.951-10.434-2.029-5.418-4.763-9.917-7.926-13.628 7.548-2.501 15.854-4.932 22.531-4.097zm88.839 336.309c-85.442-50.624-122.549-98.3-138.028-134.263-2.858-6.953-4.888-13.455-6.278-19.433-9.387-38.4 3.413-60.587 4.267-61.44 10.24-17.067 9.387-46.08 9.387-46.933s0-2.56 0-3.413c0 2.56.853 5.12 1.707 7.68 1.362 5.449 4.896 19.052 4.965 30.396-.025 2.555-.234 4.98-.699 7.151-.3 1.2-1.228 5.888-1.2 13.192-.085 13.374 3.015 36.187 19.973 62.755 22.754 34.523 73.65 79.865 191.147 107.507v31.246c-22.877 5.014-53.079 9.042-85.241 5.555zm120.228-26.549v7.68c0 1.707-.853 2.56-2.56 3.413-3.413 1.707-8.533 3.413-15.36 5.12v-22.68c5.012 1.048 10.122 2.07 15.36 3.054.539.269 1.071.63 1.556 1.043.602.726 1.004 1.547 1.004 2.37zm-306.347-13.654c-36.693-47.787-45.227-112.64-25.6-193.707 2.56-9.387 8.533-27.307 24.747-34.133 5.12-2.56 9.387-3.413 14.507-3.413h5.12c3.413.853 6.827 0 8.533-3.413 0 0 14.507-18.773 17.92-55.467 5.973 1.707 14.507 5.12 19.627 14.507-9.387 8.533-28.16 28.16-27.307 52.053 0 6.827-.853 27.307-7.68 38.4-1.707 3.413-17.92 31.573-5.12 77.653 4.984 18.156 15.025 40.175 34.136 64.629 22.319 29.019 57.415 61.721 112.411 95.45l-11.083 29.166c-44.437-6.779-116.716-26.211-160.211-81.725zm198.827 85.334c-2.56 0-10.24-.853-21.333-1.707l8.533-23.04c1.823 1.042 3.644 2.001 5.443 2.932 3.792 2.149 7.665 4.3 11.624 6.455 1.707 1.707 2.56 3.413 1.707 5.12l-2.56 7.68c-.854 1.706-2.561 2.56-3.414 2.56z"/><path d="m67.051 300.007c0-5.12-3.413-8.533-8.533-8.533s-8.533 3.413-8.533 8.533 3.413 8.533 8.533 8.533 8.533-3.413 8.533-8.533z"/><path d="m58.518 163.474c5.12 0 8.533-3.413 8.533-8.533s-3.413-8.533-8.533-8.533-8.533 3.413-8.533 8.533 3.413 8.533 8.533 8.533z"/><path d="m49.984 197.607c0-5.12-3.413-8.533-8.533-8.533s-8.533 3.413-8.533 8.533 3.413 8.533 8.533 8.533 8.533-3.413 8.533-8.533z"/><path d="m58.518 231.74c0-5.12-3.413-8.533-8.533-8.533s-8.533 3.413-8.533 8.533 3.413 8.533 8.533 8.533 8.533-3.413 8.533-8.533z"/><path d="m67.051 325.607c-5.12 0-8.533 3.413-8.533 8.533s3.413 8.533 8.533 8.533 8.533-3.413 8.533-8.533-3.413-8.533-8.533-8.533z"/><path d="m101.184 334.14c-5.12 0-8.533 3.413-8.533 8.533s3.413 8.533 8.533 8.533 8.533-3.413 8.533-8.533c.001-5.119-3.413-8.533-8.533-8.533z"/><path d="m101.184 368.274c-5.12 0-8.533 3.413-8.533 8.533s3.413 8.533 8.533 8.533 8.533-3.413 8.533-8.533-3.413-8.533-8.533-8.533z"/></g></svg>