<svg enable-background="new 0 0 1200 1048.6" viewBox="0 0 1200 1048.6" xmlns="http://www.w3.org/2000/svg"><path d="m813 714.8h-15.2v-94.6h4v-65.4h-26.8v-99.3h-19.5v-6.6h13v-15.7h17.4v-22.8h-26.1v15.2h-14.6v11.6h-17.3v18.3h-28.9v-288.3h-45.6v-76h-29.8v-45.6h-76.7v45.6h-15.2v76h15.2v334.4h70.6v61.3h43.5v57.3h30.4v109.5h11.6v23.1h16.4v60.8h12v33.2h17.5v35.2h41.3v-35.2h22.8v-33.2h18.4v-68.4h-18.4z" fill="#fcf4cf"/><path d="m995.4 592.8v-13.8h-7.6v-31.8h-15.2v-30.4h-15.2v-30.4h-15.2v-30.4h-15.2v-15.2h-15.2v-15.3h-15.2v-15.1h-15.2v-15.2h-91.2v34.7h68.4v18.5h15.2v11.3h15.4v17.2h15v26.7h15.2v37.3h12.4v25.3h19.3v17.7h15.4v27.8h14.5v37.6h30.9v-56.5z" fill="#fcf4cf"/><path d="m572 539.6v-64.5h-9.9v-19.1h-15.2v-15.2h-15.2v-15.7h-30.4v-14.7h-15.2v-15.2h-60.8v15.2h-30.4v15.2h-30.4v15.2h-15.2v15.2h-15.2v15.2h-15.2v15.2h-15.2v15.2h-15.2v15.2h-15.2v15.2h-15.2v15.2h-15.2v15.2h-15.2v15.2h-15.2v15.2h-15.2v22.8h24.5v-15.1h13.5v-11.5h19v-16.8h11.4v-18.7h12.6v-13.9h17.8v-12.5h15.2v-15.4h28.8v-14.7h16.8v-16.1h30.4v-15.6h16.9v-13h74.3v-9.4h3.4v17.7h10.9v18.2h.9v96.9h-13.4v39.9h-13.8v30.5h-14.8v30.4h-15.6v18.5h-14.6v12h-15.4v15.2h-16.3v30.4h-15v17.6h-12.2v17.4h-17v28.8h-16.6v27h-14.4v26.7h-4.6v6h-13.9v17.4h-13v13.8h-16.4v16.4h-13.6v14.3h-16.2v39.5h23v-15h16.4v-14h16v-13.9h16.8v-15.2h14.9v-17.5h14.7v-13.8h31.7v-14.3h15.9v-15.2h13.7v-15.2h21.5v-15.2h11.3v-26h15.1v-19.2h15.3v-12.8h18.7v-25.2h15v-28.4h12v-17.2h30.2v-41.9h22.9v-44h10v-25.9h12.9v-47.9z" fill="#fbf273"/><path d="m623 577.6v-46.2h-15.2v-14.6h-15.2v60.8h-15.3v12.2h-15.2v48.7h-15.2v30.6h-15.2v15.2h-15.2v15.3h-15.2v30.4h-15.2v30.4h-15.2v15.2h-15.3v14.9h-15.3v30.7h-15.2v15.2h-15.2v15.2h-15.2v15.2h-15.1v15.2h-15.2v15.2h-35.6v15.2h-10.1v15.2h-30.4v30.4h-15.2v22.1h30.4v-22.1h45.6v-24.6h60.8 39.4v-16.9h22.9v-13.1h17.1v-13.8h15.9v-15.2h11.2v-3.6h11.6v-37.3h24.2v-19.9h8.6v-27h19.9v-23.6h5.4v-35h12v-28.4h14.9v-30.4h21.1v-61h4v-30.5z" fill="#f9b514"/><path d="m668.6 608.1v-9.8-5.4-20.8h-15.2v-4.5-5.2-20.4h-15.2v-10h-15.2v10 5.2 15.2 5.2 10h15.2v15.3h-.1v15.2h-16.2v15.2 10.4 4.8h-14.1v7.9 7.3 15.3h-15.5v15.4 14.9h-15v15.5h-15.2v11.7 3.5 15.2h-15.4v10 5.2 15.2h-15.2v12.2 3 15.2h-15v15.2h-15.4v11.4 3.8 15.2h-15.2v15.2h-15.1v15.2h-15.3v15.2h-15.2v15.2h-30.4v15.2h-7.6-53.2v15.2h53.2 53.2v-15.2h30.4v-15.2h30.4v-15.2h30.4v-15.2h15.2v-15.2h15.2v-15.2h15.2v-15.2-3.8-11.4h20.9v-9.5h1.9v-5.7h7.9v-15.2-15.2h5.2 11.9v-12-3.2-15.2h13.3v-15.2-3-12.2h15.2v-15.2h15.2v-15.2-7.9-7.5-10.2-5.1-7.3-7.9-4.8-10.4-15.2z" fill="#f69015"/><path d="m258.1 973.2h-15.4v15.2h30.4v-15.2-15.2h-15z" fill="#f69015"/><path d="m288.3 942.8h-15.2v15.2h15.2v-15.2h15.2v-15.2h-15.2z" fill="#f69015"/><path d="m303.5 912.4h15.2v15.2h-15.2z" fill="#f69015"/><path d="m318.7 897.2h15.2v15.2h-15.2z" fill="#f69015"/><path d="m364.4 897.2v-15.2h15.1v-15.2h-15.2v15.2h-15.2-9.1-6.1v15.2h6.1 9.1z" fill="#f69015"/><path d="m379.5 851.6h15.2v15.2h-15.2z" fill="#f69015"/><path d="m410 836.4h15.1v-15.2h-15.2v15.2h-15.1v15.2h15.2z" fill="#f69015"/><path d="m440.4 811.4v-5.4-15.2h15.1v-15.2h-15.2v15.2h-15.1v15.2 5.4 9.8h15.2z" fill="#f69015"/><path d="m455.6 760.4h15.2v15.2h-15.2z" fill="#f69015"/><path d="m486.1 748.7v-3.5-15.2h-15.2v15.2 3.5 11.7h15.2z" fill="#f69015"/><path d="m501.3 719.5v-4.7-15.2h-15.2v15.2 4.7 10.5h15.2z" fill="#f69015"/><path d="m501.3 684.1h15.2v15.6h-15.2z" fill="#f69015"/><path d="m531.7 669.1h15.2v-15.2-5.1-10.1h-15.2v10.1 5.1 15h-15.2v15.2h15.2z" fill="#f69015"/><path d="m562.1 629.5v-6-15.2-6.5-8.7h-15.2v8.7 6.5 15.2 6 9.2h15.2z" fill="#f69015"/><path d="m562.1 577.6h15.2v15.4h-15.2z" fill="#f69015"/><path d="m577.3 516.8h15.2v60.8h-15.2z" fill="#f69015"/><path d="m607.8 516.8h15.2v15.2h-15.2z" fill="#f69015"/><path d="m592.5 501.6h15.2v15.2h-15.2z" fill="#f69015"/><path d="m592.5 486.4h15.2v15.2h-15.2z" fill="#dec491"/><path d="m607.8 471.2h15.2v15.2h-15.2z" fill="#dec491"/><path d="m623 456v15.2h15.2 15.2v-15.2h-15.2z" fill="#dec491"/><path d="m684.4 167.2v-15.2-15.2-15.2h-15.2v-15.2-15.2h-15.2v-15.2h-15.2v-15.2h-4.8v-15.2h-38.7-13.9-1.3-6.3-7.6v15.2h7.6 6.3 1.3 13.9 13.1v15.2 15.2h15.2v15.2 15.2h15.2v15.2 15.2 15.2h14.6v288.8h6.2 9 46.2v-288.8z" fill="#dec491"/><path d="m531.7 425.6h15.2v15.2h-15.2z" fill="#dec491"/><path d="m546.9 440.8h15.2v15.2h-15.2z" fill="#dec491"/><path d="m577.3 456h-15.2v91.2h15.2v-30.4h15.2v-15.2h-15.2z" fill="#dec491"/><path d="m835.8 638.5v-60.9h-15.2v-30.4-15.2h-15.2v-15.2-15.2-15.2h-15.2v-15.2h-15.2v-15.2h-60.2v15.2h15.2v15.2 15.2 15.2h15.2v15.2h14.6v15.2h15.2v30.4h15.2v60.9 91.5 15.2 15.2 15.2 15.2 15.2 15.2 15.2 15.2 15.2 15.2h15.2v-15.2-15.2-15.2h15.2v-15.2-15.2h15.2v-15.2-15.2-15.2-15.2-15.2h15.2v-91.5z" fill="#dec491"/><g fill="#f2d740"><path d="m987.8 638.5v15.2 15.2 15.2h15.2v-15.2-15.2-15.2z"/><path d="m927 501.6h-15.2v15.2 15.2h15.2v-15.2z"/><path d="m927 532h15.2v15.2h-15.2z"/><path d="m957.4 547.2h-15.2v15.2 15.2h15.2v-15.2z"/><path d="m957.4 577.6h15.2v15.2h-15.2z"/><path d="m972.6 592.8h15.2v15.2h-15.2z"/><path d="m972.6 608h15.2v15.2h-15.2z"/><path d="m972.6 623.3h15.2v15.2h-15.2z"/><path d="m744.6 440.8h15.2v15.2h-15.2z"/><path d="m759.8 425.6h15.2v15.2h-15.2z"/><path d="m881.4 456h15.2v15.2h-15.2z"/><path d="m896.6 471.2h15.2v30.4h-15.2z"/><path d="m866.2 440.8h15.2v15.2h-15.2z"/><path d="m851 425.6h-15.2v15.2h15.2 15.2v-15.2z"/><path d="m790.2 410.4h-15.2v15.2h15.2 45.6v-15.2z"/><path d="m227.5 957.3v15.2 15.2h15.2v-15.2-15.2-15.2h-15.2z"/><path d="m379.6 744.9v15.2h15.2v-15.2-15.2h-15.2z"/><path d="m364.4 760.1h15.2v15.2h-15.2z"/><path d="m349.1 775.3h15.2v15.2h-15.2z"/><path d="m333.9 805.7v14.8h-15.2v15.2 15.2h15.2v-15.2-14.8h15.2v-15.2-15.2h-15.2z"/><path d="m303.5 866.1v15.2h15.2v-15.2-15.2h-15.2z"/><path d="m288.3 881.3h15.2v15.2h-15.2z"/><path d="m273.1 911.7h-15.2v15.2h15.2v-15.2h15.2v-15.2h-15.2z"/><path d="m242.7 926.9h15.2v15.2h-15.2z"/><path d="m486.1 577.6v15.2h15.2v-15.2-15.2h-15.2z"/><path d="m470.9 608.1v15.2h15.2v-15.2-15.2h-15.2z"/><path d="m455.6 638.5v15.2h-15.2v15.2 15.2h15.2v-15.2-15.2h15.2v-15.2-15.2h-15.2z"/><path d="m425.2 684.1h15.2v15.2h-15.2z"/><path d="m410 714.5h-15.2v15.2h15.2v-15.2h15.2v-15.2h-15.2z"/><path d="m501.3 471.2h15.2v91.2h-15.2z"/><path d="m470.9 440.8h15.2v15.2h-15.2z"/><path d="m486.1 456h15.2v15.2h-15.2z"/><path d="m462 425.6h-6.3-30.4v15.2h30.4 6.3 8.9v-15.2z"/><path d="m394.9 440.8v15.2h15.2 15.2v-15.2h-15.2z"/><path d="m379.7 471.2h15.2v-15.2h-15.2v15.2h-15.2v15.2h15.2z"/><path d="m349.3 486.4h15.2v-15.2h-15.2v15.2h-15.2v15.2h15.2z"/><path d="m288.5 516.8h15.2v15.2h-15.2z"/><path d="m334.1 516.8v-15.2h-15.2-15.2v15.2h15.2z"/><path d="m273.3 532h15.2v15.2h-15.2z"/><path d="m258.1 547.2h15.2v15.2h-15.2z"/><path d="m242.9 562.4h15.2v15.2h-15.2z"/><path d="m227.7 577.6h15.2v15.2h-15.2z"/><path d="m212.5 592.8h15.2v15.2h-15.2z"/><path d="m197.3 608h15.2v15.2h-15.2z"/><path d="m668.6 547.2h-15.2v15.2 15.2h15.2v-15.2z"/><path d="m638.2 532h15.2v15.2h-15.2z"/><path d="m623 516.8h15.2v15.2h-15.2z"/><path d="m607.8 501.6h15.2v15.2h-15.2z"/><path d="m668.6 608h15.2v-15.2-15.2h-15.2v15.2z"/><path d="m683.8 608.1h15.2v106.8h-15.2z"/><path d="m714.2 714.8h-15.2v15.2 15.2h15.2v-15.2z"/><path d="m729.4 760.4v-15.2h-15.2v15.2 15.2 15.2h15.2v-15.2z"/><path d="m744.6 806v-15.2h-15.2v15.2 15.2 15.2h15.2v-15.2z"/><path d="m759.8 836.4h-15.2v15.2 15.2h15.2v-15.2z"/><path d="m759.8 866.8h15.2v15.2h-15.2z"/></g><path d="m486.1 471.2h15.2v91.2h-15.2z"/><path d="m470.9 577.6v15.2h15.2v-15.2-15.2h-15.2z"/><path d="m470.9 456h15.2v15.2h-15.2z"/><path d="m425.3 471.2v-15.2h-15.2-15.2v15.2h15.2z"/><path d="m379.7 471.2h15.2v15.2h-15.2z"/><path d="m379.7 501.6v-15.2h-15.2-15.2v15.2h15.2z"/><path d="m334.1 501.6h15.2v15.2h-15.2z"/><path d="m334.1 532v-15.2h-15.2-15.2v15.2h15.2z"/><path d="m288.5 532h15.2v15.2h-15.2z"/><path d="m273.3 547.2h15.2v15.2h-15.2z"/><path d="m258.1 562.4h15.2v15.2h-15.2z"/><path d="m242.9 577.6h15.2v15.2h-15.2z"/><path d="m227.7 592.8h15.2v15.2h-15.2z"/><path d="m212.5 608h15.2v15.2h-15.2z"/><path d="m197.3 623.2h15.2v15.2h-15.2z"/><path d="m182.1 608v15.2h15.2v-15.2-15.2h-15.2z"/><path d="m197.3 577.6h15.2v15.2h-15.2z"/><path d="m212.5 562.4h15.2v15.2h-15.2z"/><path d="m227.7 547.2h15.2v15.2h-15.2z"/><path d="m242.9 532h15.2v15.2h-15.2z"/><path d="m258.1 516.8h15.2v15.2h-15.2z"/><path d="m273.3 501.6h15.2v15.2h-15.2z"/><path d="m288.5 486.4h15.2v15.2h-15.2z"/><path d="m303.7 471.2h15.2v15.2h-15.2z"/><path d="m318.9 456h15.2v15.2h-15.2z"/><path d="m334.1 440.8h15.2v15.2h-15.2z"/><path d="m349.3 425.6h15.2v15.2h-15.2z"/><path d="m364.5 410.4v15.2h15.2 15.2v-15.2h-15.2z"/><path d="m394.9 395.2v15.2h15.2 15.2v-15.2h-15.2z"/><path d="m486.1 395.2h15.2v15.2h-15.2z"/><path d="m516.5 410.4h-15.2v15.2h15.2 15.2 15.2v-258.4h-15.2v243.2z"/><path d="m425.3 380h60.8v15.2h-60.8z"/><path d="m455.7 456h15.2v-15.2h-15.2-15.2-15.2v15.2h15.2z"/><path d="m470.8 608.1v-15.2h-15.2v15.2 15.2h15.2z"/><path d="m455.6 638.5v-15.2h-15.2v15.2 15.2h15.2z"/><path d="m440.4 668.9v-15.2h-15.2v15.2 15.2h15.2z"/><path d="m410 684.1h15.2v15.2h-15.2z"/><path d="m394.8 714.5h15.2v-15.2h-15.2v15.2h-15.2v15.2h15.2z"/><path d="m379.6 744.9v-15.2h-15.2v15.2 15.2h15.2z"/><path d="m349.2 760.1h15.2v15.2h-15.2z"/><path d="m333.9 775.3h15.2v15.2h-15.2z"/><path d="m318.7 835.7v-14.8h15.2v-15.2-15.2h-15.2v15.2 14.8h-15.2v15.2 15.2h15.2z"/><path d="m303.5 866.1v-15.2h-15.2v15.2 15.2h15.2z"/><path d="m273.1 896.5h15.2v-15.2h-15.2v15.2h-15.2v15.2h15.2z"/><path d="m242.7 911.7h15.2v15.2h-15.2z"/><path d="m227.5 926.9h15.2v15.2h-15.2z"/><path d="m273.1 973.2v14.5h-15.2-15.2-15.2v-30.4-8.9-6.3h-15.2v6.3 8.9h-15.3v12 3.2h-15.2v15.2 15.2h15.2v15.2h15.3 7.3 7.9v-15.2h15.2 15.2 15.2v-14.5h15.2 15.2v-15.2h-15.2z"/><path d="m318.7 958h-15.2v15.2h15.2 15.2 15.2v-15.2h-15.2z"/><path d="m425.1 942.8h-15.2-15.2-15.2-15.2-15.2v15.2h15.2 15.2 15.2 15.2 15.2 15.2 15.2v-15.2h-15.2z"/><path d="m455.5 927.6v15.2h15.2 15.2v-15.2h-15.2z"/><path d="m485.9 912.4v15.2h15.2 15.2v-15.2h-15.2z"/><path d="m516.3 897.2v15.2h15.2 15.2v-15.2h-15.2z"/><path d="m546.7 882h15.2v15.2h-15.2z"/><path d="m561.9 866.8h15.2v15.2h-15.2z"/><path d="m577.1 851.6h15.2v15.2h-15.2z"/><path d="m592.3 836.4v15.2h15.2v-15.2-15.2h-15.2z"/><path d="m622.9 790.8v15.2h-.2-15.2v15.2h15.2.3v-15.2h15.1v-15.2-15.2h-15.2z"/><path d="m638.2 760.4v15.2h15.2v-15.2-15.2h-15.2z"/><path d="m653.4 730v15.2h15.2v-15.2-15.2h-15.2z"/><path d="m668.6 699.6h15.2v15.2h-15.2z"/><path d="m699 714.8h-15.2v15.2 15.2h15.2v-15.2z"/><path d="m714.2 760.4v-15.2h-15.2v15.2 15.2 15.2h15.2v-15.2z"/><path d="m729.4 806v-15.2h-15.2v15.2 15.2 15.2h15.2v-15.2z"/><path d="m744.6 836.4h-15.2v15.2 15.2h15.2v-15.2z"/><path d="m744.6 866.8h15.2v15.2h-15.2z"/><path d="m759.8 882v15.2h15.2 15.2v-15.2h-15.2z"/><path d="m790.2 866.8h15.2v15.2h-15.2z"/><path d="m805.4 851.6v15.2h15.2v-15.2-15.2h-15.2z"/><path d="m820.6 821.2v15.2h15.2v-15.2-15.2h-15.2z"/><path d="m805.4 516.8v15.2h15.2v-15.2-15.2-15.2h-15.2v15.2z"/><path d="m790.2 471.2h15.2v15.2h-15.2z"/><path d="m896.6 471.2h-15.2v15.2 15.2h15.2v-15.2z"/><path d="m911.8 501.6h-15.2v15.2 15.2h15.2v-15.2z"/><path d="m911.8 532h15.2v15.2h-15.2z"/><path d="m927 440.8h15.2v15.2h-15.2z"/><path d="m911.8 425.6h15.2v15.2h-15.2z"/><path d="m896.6 410.4h15.2v15.2h-15.2z"/><path d="m881.4 395.2h15.2v15.2h-15.2z"/><path d="m866.2 380h-15.2-15.2-15.2-15.2-15.2v15.2h15.2 15.2 15.2 15.2 15.2 15.2v-15.2z"/><path d="m759.8 395.2v15.2h15.2 15.2v-15.2h-15.2z"/><path d="m744.6 425.6h-14.6v-60.8-91.2-15.2-15.2-15.2h-15.2v15.2 15.2 15.2 91.2 76 15.2h15.2v-15.2h15.2v-15.2h14.6v-15.2h-15.2z"/><path d="m714.8 197.6v-15.2-15.2h-15.2v15.2 15.2 15.2 15.2h15.2v-15.2z"/><path d="m699.6 136.8v-15.2h-15.2v15.2 15.2 15.2h15.2v-15.2z"/><path d="m684.4 91.2h-15.2v15.2 15.2h15.2v-15.2z"/><path d="m654 76h15.2v15.2h-15.2z"/><path d="m638.8 60.8h15.2v15.2h-15.2z"/><path d="m623.6 45.6h15.2v15.2h-15.2z"/><path d="m531.7 60.8v15.2 15.2h15.2v-15.2-15.2-15.2h-15.2z"/><path d="m516.5 91.2h15.2v76h-15.2z"/><path d="m607.7 30.4h-15.2-15.2-15.2-10.4-4.8v15.2h4.8 10.4 15.2 15.2 15.2 15.9v-15.2z"/><path d="m942.2 547.2h-15.2v15.2 15.2h15.2v-15.2z"/><path d="m942.2 577.6h15.2v15.2h-15.2z"/><path d="m987.8 516.8h-15.2v15.2 15.2h15.2v-15.2z"/><path d="m972.6 486.4h-15.2v15.2 15.2h15.2v-15.2z"/><path d="m942.2 456h15.2v30.4h-15.2z"/><path d="m972.6 623.3v-15.3-6-9.2h-15.2v9.2 6 15.3 5.9 9.3h15.2v-9.3z"/><path d="m987.8 653.7v-15.2h-15.2v15.2 15.2 15.2h15.2v-15.2z"/><path d="m987.8 547.2h15.2v45.6h-15.2z"/><path d="m1003 592.8v91.3h-15.2v15.2h15.2v-15h15.2v-91.5z"/><path d="m775 456h15.2v15.2h-15.2z"/><path d="m866.2 456h15.2v15.2h-15.2z"/><path d="m759.8 440.8h15.2v15.2h-15.2z"/><path d="m851 440.8h-15.2v15.2h15.2 15.2v-15.2z"/><path d="m790.2 425.6h-15.2v15.2h15.2 45.6v-15.2z"/><path d="m820.6 577.6h15.2v-30.4-15.2h-15.2v15.2z"/><path d="m835.8 745.2v15.2 15.2 15.2 15.2h15.2v-15.2-15.2-15.2-15.2-15.2h-15.2z"/><path d="m835.8 577.6h15.2v60.9h-15.2z"/><path d="m851 638.5h15.2v91.6h-15.2z"/><path d="m1018.2 577.6v-45.6h-15.2v-30.4h-15.2v-30.4h-15.2v-15.2-15.2h-15.2v-15.2h-15.2v-15.2h-15.2v-15.2h-15.2v-15.2h-15.2v-15.2h-121.6v15.2h-29.8v-167.2h-15.2v-60.8h-15.2v-45.6h-15.2v-30.4h-15.2v-15.2h-15.2v-15.2h-15.2v-15.2h-15.2v-15.2h-107.1v15.2h-15.2v45.6h-15.2v7.6 7.6 76 7.6 7.6h15.2v197.6h-15.2v-15.2h-15.2-60.8-15.2v15.2h-15.2-15.2v15.2h-15.2-15.2v15.2h-15.2v15.2h-15.2v15.2h-15.2v15.2h-15.2v15.2h-15.2v15.2h-15.2v15.2h-15.2v15.2h-15.2v15.2h-15.2v15.2h-15.2v15.2h-15.2v15.2h-15.2v60.8h15.2v15.2h15.2 15.2 15.2v-15.2h15.2v-15.2h15.2v-15.2h15.2v-15.2h15.2v-15.2h15.2v-15.2h15.2v-15.2h15.2 15.2v-15.2h15.2v-15.2h15.2 15.2v-15.2h15.2v-15.2h15.2 15.2v-15.2h15.2v15.2h15.2v60.8h-15.2v15.2 15.2h-15.3v7.6 7.6 14.4.9h-15.2v15.2 15.2h-15.2v15.2 15.2h-15.2v15.2h-15.2v15.2h-15.2v15.2h-15.2v15.2h-.1v15.3h-15.2v15.2h-15.2v15.2h-15.2v15.2 15.2h-15.2v14.8 15.2h-15.2v15.2 15.2h-15.2v15.2h-15.2v15.2h-15.2v15.2h-15.2v15.2h-15.3v15.2h-15.2v15.2h-5.9-9.3v45.6 6.7 8.5h15.2v7.6 7.6h10.3 4.9 30.5 5.3 9.9v-15.2h30.4 2.9 12.3v-15.2h15.2 5.8 9.4v-14.5h30.4 7.6 7.6v-15.2h91.2 7.6 7.6v-12.1-3.1h15.2 8.8 6.4v-15.2h15.2 6.2 9v-15.2h15.2 3.9 11.3v-15.2h15.2v-15.2h15.2v-15.2h15.2v-15.2h15.2v-30.4h.1 6.9 8.6v-15.2h15.1v-30.4h15.2v-30.4h15.2v45.5h15.1v45.6h11.8 3.4.1v30.4h15.2v15.2h15.2v15.2h15.2 15.2 15.2 15.2v-15.2h15.2v-15.2h15.2v-11.7-3.5-15.2h15.2v-7.6-7.6-15.2h15.2v-30.4-5.3-9.9-15.2-15.2h15.2v-106.7-4.5-10.7h-15.2v-60.9h-15.2v-45.6h-15.2v-45.6h15.2v15.2h15.2v30.4h15.2v30.4h15.2v15.2h15.2v30.4h15.2v15.2h15.2v45.7h15.2v45.6h15.2v15.2h45.6v-15.2h15.2v-121.7zm0 106.5h-15.2v15.2h-15.2v-15.2h-15.2v-45.5h-15.2v-30.5-10.3-4.9h-15.2v-15.2h-15.2v-15.2-2.4-12.9h-15.2v-15.2h-15.2v-15.2-4.2-11h-15.2v-15.2-4.5-10.7h-15.2v-15.2h-15.2-15.2v-15.2h-45.6-15.2v15.2h15.2v15.2h15.2v15.2h15.2v45.6h15.2v45.6h15.2v60.9h15.2v91.6h-15.2v15.1 15.2 15.2 9.9 5.3 15.2h-15.2v30.4h-15.2v30.4h-15.2v15.2h-15.2v15.2h-15.2-15.2v-15.2h-15.2v-15.2h-15.2v-30.4h-3.5-11.7-.1v-45.6h-15.1v-45.6h-15.2v-30.4h-15.2v30.4h-15.2v30.4h-15.2v30.4h-15.4v15.2h-.1-8.2-7v30.4h-15.2v15.2h-15.2v15.2h-15.2v15.2h-15.2v15.2h-15.2-3.9-11.3v15.2h-30.4v15.2h-15.2-15.2v15.2h-106.4v15.2h-45.6v14.5h-30.4v15.2h-45.6v15.2h-30.5v-15.1h-15.2v-30.4h15.2v-15.2h15.2v-15.2h15.2v-15.2h15.2v-15.2h15.2v-15.2h15.2v-15.2h15.2v-15.2-15.2h15.2v-15.2-14.8h15.2v-15.2-15.2h15.2v-15.2h15.3v-15.2h15.3v-15.2-15.2h15.2v-15.2h15.2v-15.2h15.2v-15.2h15.2v-15.2-15.2h15.2v-15.2-15.2h15.2v-15.2-15.2h15.3v-15.2-15.2h3.8 11.4v-91.3h-15.2v-15.3h-15.2-15.2-15.2v15.2h-15.2-15.2v15.2h-15.2v15.2h-15.2-15.2v15.2h-15.2v15.2h-15.2-15.2v15.2h-15.2v15.2h-15.2v15.2h-15.2v15.2h-15.2v15.2h-15.2v15.2h-15.2v15.2h-15.2v-15.2h-15.2v-30.4h15.2v-15.2h15.2v-15.2h15.2v-15.2h15.2v-15.2h15.2v-15.2h15.2v-15.2h15.2v-15.2h15.2v-15.2h15.2v-15.2h15.2v-15.2h15.2v-15.2h15.2v-15.2h15.2 15.2v-15.2h15.2 15.2v-15.2h60.8v15.2h15.2v15.2h15.2 15.2v-243.2h-15.2v-76h15.2v-45.6h15.2v-15.2h76.7v15.2h15.2v15.2h15.2v15.2h15.2v15.2h15.2v15.2 15.2h15.2v45.6h15.2v60.8h15.2v197.6h15.2v-15.2h14.6v-15.2h30.4v-15.2h91.2v15.2h15.2v15.2h15.2v15.2h15.2v15.2h15.2v15.2h15.2v30.4h15.2v30.4h15.2v30.4h15.2v45.6h15.2z" fill="#fff"/></svg>