<svg enable-background="new 0 0 511.995 511.995" viewBox="0 0 511.995 511.995" xmlns="http://www.w3.org/2000/svg"><g fill="#fff"><path d="m341.525 310.827-56.151-56.071 56.151-56.071c7.735-7.735 7.735-20.29.02-28.046-7.755-7.775-20.31-7.755-28.065-.02l-56.19 56.111-56.19-56.111c-7.755-7.735-20.31-7.755-28.065.02-7.735 7.755-7.735 20.31.02 28.046l56.151 56.071-56.151 56.071c-7.755 7.735-7.755 20.29-.02 28.046 3.868 3.887 8.965 5.811 14.043 5.811s10.155-1.944 14.023-5.792l56.19-56.111 56.19 56.111c3.868 3.868 8.945 5.792 14.023 5.792s10.175-1.944 14.043-5.811c7.733-7.756 7.733-20.311-.022-28.046z"/></g></svg>