<svg enable-background="new 0 0 1200 966" viewBox="0 0 1200 966" xmlns="http://www.w3.org/2000/svg"><path d="m767.3 677.4-20.3 5.3-2.6 55.7-38 26.2-18.2 9.6-27.4-9.6-30.4-15.2-30.5-30.5-30.4-32.1-38-9.4-10.6-7.6-35.1-19.3-56.8-15.4-20.3-16.9-14.1-3.8-3-21.9-27.6-8.2-2.9-35.7-21.4-36.6-19-57.6 2-32.1 24.2-24.3 8.1-19.8 21.6-4.9.7-38-5.5-11.8-15.2-31.2-7.7-14.5 7.7-15.2 15.2-45.6 15.2-30.4 38-15.3 30.4-15.2 7.6-24.4 30.5-30.7 40-2.4 7.7-10.1 37.9-5.3 1.9-25.9 41.7-3.4 7.7-12.5 19.8 2.4 25.8 41.3 50.6 1 25.4-28.8 15.3 7.6 7.6 7.6 7.6-7.6 15.2-7.6 15.2 7.6 15.2 21.7 22.8 9.1 29.4 28.3 8.6 32.1 15.3 15.2 15.2 22.9 15.2 7.6 30.4 30.4v76l15.2 15.3-60.8 60.8-7.6 12.6 22.8 17.8 22.8 30.5-7.6 76-30.4 45.6-53.3 24.1-22.8 29.2-36.4 17.9-9.1 12.5-22.8 4.8z" fill="#214130"/><path d="m919.4 566.8-53.3 24.1-142.4-4.3-25-12-88.8-3.8-5.8-9.2-59.1-8.6-5.9-7.2-33.5-4.8-11.5-27.4-24.5-25.5 2.4-49.4 51.9 6.5 30.4 15.2 15.2 15.2 53.2 15.2 81.3 9.8 179.7-6.2 5.2-10.6 68.5 1-7.6 36.4z" fill="#fffc00"/><path d="m554.3 323.5-52.5-12.6-10.1-10.3-13.5 7.6-12-7.6 12-7.6 13 3.5 42.3-11.1 20.8-7.6 35.9-12.1 9.7-18.3 30.5-15.2 15.2-15.2 7.6-7.6 7.6 7.6 15.2 15.2 30.4 15.2 15.2 19 30.4-3.8 30.5 7.6 15.2-7.6 34.1-12.7 11.5-17.7 30.4-15.2 15.2-15.2 7.7-7.6 7.6 7.6 15.2 15.2 30.4 15.2 13.1 20.6 32.5 9.8 55.4 11.3 9.2 8.7 11.5-4.8 12.5 7.6-12.5 7.6-10.6-4.7-22.1 12.3-43.4 7.6-22.8 7.6-15.2 7.7-7.6 15.2-30.4 15.2-27.1 5.5-18.6-5.5-30.4-15.2-17.3-22.9-13.1 7.7-40.7-9.7-20.2 9.7-36 10.9-9.6 19.5-30.4 15.2-22.7 11.9-22.8-11.9-30.5-15.2-11.7-22.8z" fill="#ff355f"/><path d="m75.1 916.7 7.6-30.4 30.5-60.9 30.4-30.4 15.2-30.4 76.1-76.1 30.4-15.2 15.2-15.2 5.6-7.6-5.6-7.6-5.9-7.6 5.9-7.6 15.2-15.2 30.4-15.2 38.3-10.7 30.2 8.2 4.4 25.3 26.9 7.6 49.9 22.8 48.1 13.4 19.2 17 30.7 12.8 17.3 20.7 8.8 4.5 22.8 11.3 7.7 19.2 30.4 15.2 22.8 7.6 22.8-7.6 34.1-22.8 8.7-60.9 69.6 3.7 30.8 21.6 39.3 12.7 136.9 137 15.3 30.4 7.6 30.4z" fill="#4d966e"/><path d="m949.8 886.3v-15.2-15.2-15.3h-15.2v-15.2h-15.2v-15.2h-15.2v-15.2h-15.3v-15.2h-15.2v-15.2h-15.2v-15.2h-15.2-15.2v-15.2h-15.2-15.2-15.2v15.2 15.2h-15.2v15.2h-15.3v15.2 15.2h-15.2v15.2h-15.2-15.2-15.2-15.2-15.2v-15.2h-15.2v-15.2h-15.2-15.3v-15.2h-15.2v-15.2h-15.2v-15.2h-15.2v-15.2h-15.2-15.2v-15.3h-15.2-15.2v-15.2h-15.2v-15.2h-15.3v-15.2h-15.2-15.2v-15.2h-15.2-15.2v-15.2h-15.2-15.2v-15.2-15.2h-15.2-15.2-15.3-15.2v15.2h-15.2-15.2v15.2h15.2v15.2h15.2 15.2v15.2h15.3 15.2v15.2h15.2 15.2v15.2h15.2v15.2h15.2 15.2v15.3h15.2v15.2 15.2h-15.2-15.2v-15.2h-15.2-15.2v-15.2h-15.2-15.2v-15.3h-15.2-15.3v-15.2h-15.2-15.2-15.2-15.2-15.2v15.2h-15.2v15.3h-15.2v15.2h-15.3v15.2h-15.2v15.2h-15.2v15.2h-15.2v15.2 15.2h-15.2v15.2h-15.2v15.3 15.2h-15.2v15.2h-15.2v15.2 15.2h15.2 15.2 15.2 15.2 15.2 15.2 15.2 15.3 15.2 15.2 15.2 15.2 15.2 15.2v-15.2h-15.2v-15.2h-15.2v-15.2h-15.2v-15.2-15.3h-15.2v-15.2h15.2v15.2h15.2v15.3h15.2v15.2h15.2v15.2h15.2v15.2h15.3v15.2h15.2 15.2 15.2 15.2 15.2 15.2 15.2 15.2 15.3 15.2 15.2 15.2 15.2v-15.2h-15.2-15.2-15.2v-15.2h-15.2-15.3v-15.2h-15.2v-15.2h-15.2v-15.3h-15.2v-15.2h-15.2v-15.2h-15.2v-15.2-15.2-15.2h15.2v15.2 15.2h15.2v15.2h15.2v15.2h15.2 15.2v15.2h15.3v15.3h15.2 15.2v15.2h15.2v15.2h15.2 15.2v15.2h15.2 15.2 15.2v15.2h15.3 15.2 15.2 15.2 15.2 15.2 15.2 15.2v-15.2h15.2 15.3v-15.2h15.2 15.2v-15.2h15.2v-15.2h15.2v-15.3h15.2v-15.2h15.2v15.2 15.3h-15.2v15.2h-15.2v15.2h-15.2v15.2h-15.2v15.2h15.2 15.2 15.2 15.2v-15.2-15.2h15.2v-15.2h15.2v15.2 15.2h-15.2v15.2h15.2 15.3 15.2 15.2 15.2 15.2v-15.2-15.2z" fill="#76e6a9"/><path d="m645.6 353.9h15.2v15.2h-15.2z" fill="#fefefe"/><path d="m888.9 338.7h15.2v15.2h-15.2z" fill="#fefefe"/><path d="m782.5 293h15.2v15.2h-15.2z" fill="#fefefe"/><path d="m752 293h15.2v15.2h-15.2z" fill="#fefefe"/><path d="m706.4 293h-15.2v-15.2h-15.2v-15.2h-15.2v-15.2h-15.2v15.2h-15.2v15.2h-15.3v15.2h-15.2-15.2-15.2v15.2h15.2 15.2 15.2v15.3h15.3v15.2h15.2 15.2 15.2v-15.2h15.2v-15.3h15.2 15.2 15.2v-15.2h-15.2z" fill="#fefefe"/><path d="m539.1 293h15.2v15.2h-15.2z" fill="#fefefe"/><path d="m508.7 293h15.2v15.2h-15.2z" fill="#fefefe"/><path d="m1025.8 277.8h15.2v15.2h-15.2z" fill="#fefefe"/><path d="m995.4 277.8h15.2v15.2h-15.2z" fill="#fefefe"/><path d="m949.8 277.8h-15.2v-15.2h-15.2v-15.2h-15.2v-15.2h-15.3v15.2h-15.2v15.2h-15.2v15.2h-15.2-15.2-15.2v15.2h15.2 15.2 15.2v15.2h15.2v15.3h15.2 15.3 15.2v-15.3h15.2v-15.2h15.2 15.2 15.2v-15.2h-15.2z" fill="#fefefe"/><g fill="#f6b0b0"><path d="m645.6 338.7h15.2v15.2h-15.2z"/><path d="m888.9 323.5h15.2v15.2h-15.2z"/><path d="m676 323.5h15.2v15.2h-15.2z"/><path d="m615.1 323.5h15.2v15.2h-15.2z"/><path d="m919.4 308.2h15.2v15.2h-15.2z"/><path d="m858.5 308.2h15.2v15.2h-15.2z"/><path d="m706.4 308.2h-15.2v15.3h15.2 15.2 15.2v-15.3h-15.2z"/><path d="m584.7 323.5h15.2 15.2v-15.3h-15.2-15.2-15.2v15.3z"/><path d="m949.8 293h-15.2v15.2h15.2 15.2 15.2v-15.2h-15.2z"/><path d="m843.3 293h15.2v15.2h-15.2z"/><path d="m767.3 293h15.2v15.2h-15.2z"/><path d="m736.8 293h15.2v15.2h-15.2z"/><path d="m554.3 293h15.2v15.2h-15.2z"/><path d="m523.9 293h15.2v15.2h-15.2z"/><path d="m1010.6 277.8h15.2v15.2h-15.2z"/><path d="m980.2 277.8h15.2v15.2h-15.2z"/><path d="m721.6 277.8h-15.2-15.2v15.2h15.2 15.2 15.2v-15.2z"/><path d="m584.7 277.8h-15.2v15.2h15.2 15.2 15.2v-15.2h-15.2z"/><path d="m965 262.6h-15.2-15.2v15.2h15.2 15.2 15.2v-15.2z"/><path d="m828.1 262.6h-15.2v15.2h15.2 15.2 15.2v-15.2h-15.2z"/><path d="m676 262.6h15.2v15.2h-15.2z"/><path d="m615.1 262.6h15.2v15.2h-15.2z"/><path d="m919.4 247.4h15.2v15.2h-15.2z"/><path d="m858.5 247.4h15.2v15.2h-15.2z"/><path d="m645.6 232.2h15.2v15.2h-15.2z"/><path d="m888.9 217h15.2v15.2h-15.2z"/></g><path d="m706.4 688.5v15.2h-15.2-15.2-15.2-15.2-15.2-15.3v-15.2h-15.2-15.2v15.2h15.2v15.3h15.2 15.3v15.3 15.2h15.2 15.2v15.2h15.2 15.2 15.2v-15.2h15.2v-15.2h15.2v-15.3-15.2-15.2h-15.2-15.2z" fill="#bcbcbc"/><path d="m615.1 338.7v-15.2h-15.2v15.2 15.2h15.2 15.3v15.2h15.2v-15.2-15.2h-15.2z" fill="#ff355f"/><path d="m858.5 323.5v-15.3h-15.2v15.3 15.2h15.2 15.2v15.2h15.2v-15.2-15.2h-15.2z" fill="#ff355f"/><path d="m691.2 338.7h-15.2-15.2v15.2 15.2h15.2v-15.2h15.2 15.2v-15.2-15.2h-15.2z" fill="#ff355f"/><path d="m934.6 323.5h-15.2-15.2v15.2 15.2h15.2v-15.2h15.2 15.2v-15.2-15.3h-15.2z" fill="#ff355f"/><path d="m676 247.4v-15.2h-15.2v15.2 15.2h15.2 15.2v15.2h15.2v-15.2-15.2h-15.2z" fill="#ff355f"/><path d="m919.4 232.2v-15.2h-15.2v15.2 15.2h15.2 15.2v15.2h15.2v-15.2-15.2h-15.2z" fill="#ff355f"/><path d="m630.4 247.4h-15.3-15.2v15.2 15.2h15.2v-15.2h15.3 15.2v-15.2-15.2h-15.2z" fill="#ff355f"/><path d="m873.7 232.2h-15.2-15.2v15.2 15.2h15.2v-15.2h15.2 15.2v-15.2-15.2h-15.2z" fill="#ff355f"/><path d="m888.9 353.9h-15.2v15.2h15.2v15.2h15.3v-15.2h15.2v-15.2h-15.2z" fill="#f00"/><path d="m919.4 338.7v15.2h15.2 15.2v-15.2h-15.2z" fill="#f00"/><path d="m858.5 338.7h-15.2v15.2h15.2 15.2v-15.2z" fill="#f00"/><path d="m843.3 308.2v-15.2h-15.2-15.2v-15.2-15.2h15.2 15.2v-15.2-15.2h-15.2v15.2h-15.2-15.2v15.2h-15.2-15.2-15.3-15.2-15.2v-15.2h-15.2v15.2 15.2h15.2 15.2v15.2h15.2 15.3 15.2 15.2v15.2h-15.2-15.2-15.3-15.2v15.3h-15.2-15.2v15.2 15.2h15.2v-15.2h15.2 15.2v-15.2h15.3 15.2 15.2 15.2 15.2v15.2h15.2v-15.2z" fill="#f00"/><path d="m1117.2 277.8h15.2v15.2h-15.2z" fill="#f00"/><path d="m934.6 232.2h15.2v-15.2h-15.2-15.2v15.2z" fill="#f00"/><path d="m873.7 232.2v-15.2h-15.2-15.2v15.2h15.2z" fill="#f00"/><path d="m904.2 217h15.2v-15.2h-15.2v-15.2h-15.3v15.2h-15.2v15.2h15.2z" fill="#f00"/><path d="m1071.6 277.8h-15.2v-15.2h-15.2-15.3-15.2-15.2v-15.2h-15.2-15.3v-15.2h-15.2v15.2 15.2h15.2 15.2v15.2h15.2 15.2 15.2 15.3v15.2h-15.3-15.2-15.2-15.2v15.2h-15.2-15.2v15.3 15.2h15.2v-15.2h15.2 15.2v-15.3h15.2 15.2 15.3 15.2v-15.2h15.2 15.2 15.2v-15.2h-15.2z" fill="#f00"/><path d="m417.4 293h15.2v15.2h-15.2z" fill="#f00"/><path d="m645.6 369.1h-15.2v15.2h15.2v15.2h15.2v-15.2h15.2v-15.2h-15.2z" fill="#f00"/><path d="m676 353.9v15.2h15.2 15.2v-15.2h-15.2z" fill="#f00"/><path d="m615.1 353.9h-15.2v15.2h15.2 15.3v-15.2z" fill="#f00"/><path d="m599.9 323.5h-15.2-15.2v-15.3h-15.2-15.2-15.2-15.2v-15.2h15.2 15.2 15.2 15.2v-15.2h15.2 15.2v-15.2-15.2h-15.2v15.2h-15.2-15.2v15.2h-15.2-15.2-15.2-15.2v15.2h-15.3-15.2-15.2v15.2h15.2 15.2 15.3v15.3h15.2 15.2 15.2 15.2v15.2h15.2 15.2v15.2h15.2v-15.2z" fill="#f00"/><path d="m691.2 247.4h15.2v-15.2h-15.2-15.2v15.2z" fill="#f00"/><path d="m630.4 247.4v-15.2h-15.3-15.2v15.2h15.2z" fill="#f00"/><path d="m660.8 232.2h15.2v-15.2h-15.2v-15.2h-15.2v15.2h-15.2v15.2h15.2z" fill="#f00"/><path d="m645.6 171.4h15.2v15.2h-15.2z" fill="#f00"/><path d="m888.9 156.1h15.2v15.2h-15.2z" fill="#f00"/><path d="m934.6 445.2v-30.5h-30.4v-15.2h-30.4v15.2h-45.6v-15.2h-30.4v-15.2h-15.2v-15.2h-30.4v15.2h-15.2v-15.2h-30.4v30.4h-45.6v15.2h-60.8v-15.2h15.2v-30.4h-30.4v-15.2h-15.2v-15.2h-15.2v-15.2h-45.7v15.2h-15.2v45.6h-15.5v15.2h-15.2v15.2h-15.2v15.2h-15.2v76.1h15.2v15.2h15.2v-91.3h60.9v15.2h30.4v15.2h15.2v15.2h60.8v15.2h243.4v-15.2h76v-30.4zm-152.1-30.5v15.2h15.2v15.2h-30.4v-45.6h15.2zm-45.7-15.2v45.6h-30.4v-15.2h15.2v-30.4z" fill="#fff"/><path d="m919.4 201.8h15.2v15.2h-15.2z" fill="#dfdfdf"/><path d="m691.2 201.8h15.2v-15.2h-15.2-15.2v-15.2h-15.2v15.2h-15.2v-15.2h-15.2v15.2h-15.3-15.2v15.2h-15.2-15.2-15.2v15.2 15.2 15.2h-15.2v15.2 15.2h15.2v-15.2h15.2 15.2v-15.2h15.2v-15.2h15.2 15.3v-15.2h15.2v-15.2h15.2 15.2z" fill="#dfdfdf"/><path d="m797.7 232.2v15.2h15.2 15.2v-15.2h-15.2z" fill="#dfdfdf"/><path d="m752 247.4v-15.2-15.2h-15.2-15.2-15.2-15.2-15.2v15.2h15.2 15.2v15.2h15.2 15.2v15.2h15.2 15.3 15.2v-15.2h-15.2z" fill="#dfdfdf"/><path d="m888.9 171.4h-15.2-15.2-15.2v-15.3h-15.2-15.2v15.3h-15.2-15.2v-15.3h-15.2v15.3h-15.3v15.2 15.2h15.3v15.2 15.2h15.2v-15.2h15.2 15.2 15.2 15.2 15.2 15.2v-15.2h15.2v-15.2h15.3v-15.2z" fill="#dfdfdf"/><path d="m1041.2 855.9h-15.3v15.2 15.2h15.3v-15.2z"/><path d="m82.7 871.1v15.2h15.3v-15.2-15.2h-15.3z"/><path d="m1010.6 840.6h15.2v15.2h-15.2z"/><path d="m995.4 825.4h15.2v15.2h-15.2z"/><path d="m98 840.6v15.3h15.2v-15.3-15.2h-15.2z"/><path d="m980.2 810.2h15.2v15.2h-15.2z"/><path d="m113.2 810.2h15.2v15.2h-15.2z"/><path d="m965 795h15.2v15.2h-15.2z"/><path d="m128.4 795h15.2v15.2h-15.2z"/><path d="m949.8 779.8h15.2v15.2h-15.2z"/><path d="m934.6 764.6h15.2v15.2h-15.2z"/><path d="m676 764.6h-15.2v15.2h15.2 15.2 15.2v-15.2h-15.2z"/><path d="m143.6 779.8v15.2h15.2v-15.2-15.2h-15.2z"/><path d="m919.4 749.4h15.2v15.2h-15.2z"/><path d="m645.6 749.4h-15.2v15.2h15.2 15.2v-15.2z"/><path d="m158.8 749.4h15.2v15.2h-15.2z"/><path d="m904.2 734.2h15.2v15.2h-15.2z"/><path d="m174 734.2h15.2v15.2h-15.2z"/><path d="m888.9 718.9h15.2v15.2h-15.2z"/><path d="m630.4 718.9h-15.3-15.2v15.3h15.2v15.2h15.3v-15.2z"/><path d="m432.6 734.2v15.2h15.2 15.2v-15.2h-15.2v-15.3h-15.2-15.2v15.3z"/><path d="m189.2 718.9h15.2v15.2h-15.2z"/><path d="m873.7 703.7h-15.2v-15.2h-15.2-15.2v-15.2h-15.2-15.2-15.2v-15.2h15.2 15.2v-15.2h15.2v-15.2h15.2 15.2v-15.2h15.2v-15.2h15.2v-15.3h15.3 15.2v-15.2h-15.2-15.3-15.2v15.2h-15.2-15.2-15.2-15.2-15.2-15.2-15.2-15.3-15.2-15.2v-15.2h-15.2-15.2-15.2-15.2-15.2-15.2-15.3v-15.2h-15.2-15.2-15.2-15.2v-15.2h-15.2-15.2-15.2v-15.2-15.2h-15.2v-15.2h-15.3v-15.2-15.2-15.2h15.3 15.2 15.2v-15.3h-15.2-15.2-15.3-15.2v15.3 15.2 15.2 15.2 15.2h15.2v15.2h15.3v15.2 15.2h15.2 15.2 15.2v15.2h15.2 15.2 15.2 15.2v15.2h15.2 15.3 15.2 15.2 15.2 15.2 15.2v15.3h15.2 15.2 15.2 15.3 15.2 15.2 15.2 15.2 15.2v15.2h-15.2-15.2-15.2-15.2-15.2v15.2h15.2 15.2v15.2h-15.2-15.2v15.2h-15.3v15.2h-15.2-15.2-15.2v15.2h15.2 15.2v15.2 15.2 15.3h-15.2v15.2h-15.2v15.2h15.2 15.2v-15.2h15.2v-15.2-15.3-15.2-15.2h15.3 15.2 15.2 15.2v15.2h-15.2v15.2 15.3h15.2v-15.3h15.2v-15.2h15.2v15.2h15.2 15.2 15.2v-15.2z"/><path d="m584.7 703.7v-15.2h15.2 15.2v15.2h15.3 15.2 15.2 15.2 15.2 15.2v-15.2h-15.2-15.2-15.2-15.2-15.2v-15.2h-15.3-15.2-15.2-15.2-15.2-15.2v-15.2h-15.2-15.2v-15.2h-15.2-15.3-15.2v-15.2h-15.2-15.2v-15.2h-15.2-15.2v-15.2-15.3h-15.2-15.2v-15.2-15.2-15.2h-15.2v-15.2-15.2h-15.3v-15.2-15.2-15.2h-15.2v-15.2-15.3h15.2v-15.2h15.3v-15.2-15.2h15.2 15.2v-15.2-15.2h15.2v-15.2h-15.2v-15.2h-15.2v15.2 15.2 15.2h-15.2-15.3v15.2 15.2h-15.2v15.2h-15.2v15.2 15.3 15.2 15.2h15.2v15.2 15.2 15.2h15.2v15.2 15.2h15.3v15.2 15.2h-15.3-15.2v15.3h15.2 15.3 15.2 15.2v15.2 15.2h15.2 15.2v15.2h15.2 15.2v15.2h15.2 15.2 15.3v15.2h15.2 15.2v15.2h15.2 15.2v15.2h15.2v15.2h15.2 15.2v-15.2z"/><path d="m204.4 703.7h15.2v15.2h-15.2z"/><path d="m387 703.7v15.2h15.2 15.2v-15.2h-15.2v-15.2h-15.2-15.2v15.2z"/><path d="m219.6 688.5h15.2v15.2h-15.2z"/><path d="m356.6 688.5h15.2v-15.2h-15.2-15.3v15.2z"/><path d="m234.9 673.3v15.2h15.2 15.2v-15.2h-15.2z"/><path d="m691.2 658.1h15.2v-15.2h-15.2-15.2v15.2 15.2h15.2z"/><path d="m660.8 673.3v-15.2h-15.2-15.2v15.2h15.2z"/><path d="m326.1 673.3h15.2v-15.2h-15.2-15.2v15.2z"/><path d="m265.3 658.1h15.2v15.2h-15.2z"/><path d="m721.6 642.9h15.2v15.2h-15.2z"/><path d="m615.1 642.9h15.2v15.2h-15.2z"/><path d="m295.7 658.1h15.2v-15.2h-15.2-15.2v15.2z"/><path d="m736.8 627.7h15.2v15.2h-15.2z"/><path d="m599.9 627.7h15.2v15.2h-15.2z"/><path d="m554.3 627.7h15.2v15.2h-15.2z"/><path d="m265.3 627.7h15.2v15.2h-15.2z"/><path d="m584.7 612.5h-15.2v15.2h15.2 15.2v-15.2z"/><path d="m539.1 612.5h-15.2v15.2h15.2 15.2v-15.2z"/><path d="m280.5 612.5h15.2v15.2h-15.2z"/><path d="m508.7 597.3v-15.3-15.2h-15.2-15.3v-15.2h-15.2v-15.2-15.2h-15.2v15.2 15.2 15.2h15.2v15.2h15.2 15.3v15.3 15.2h15.2 15.2v-15.2z"/><path d="m295.7 597.3v15.2h15.2 15.2v-15.2h-15.2z"/><path d="m934.6 536.4h-15.2-15.2-15.3-15.2-15.2-15.2-15.2-15.2-15.2-15.2-15.2-15.3-15.2-15.2-15.2-15.2-15.2-15.2-15.2v-15.2h-15.2-15.3-15.2-15.2-15.2v15.2h15.2 15.2 15.2 15.3v15.2h15.2 15.2 15.2 15.2 15.2 15.2 15.2 15.2 15.3 15.2 15.2 15.2 15.2 15.2 15.2 15.2 15.2 15.3 15.2v15.2h15.2v-15.2h15.2v-15.2-15.2h-15.2z"/><path d="m554.3 506h-15.2v15.2h15.2 15.2v-15.2z"/><path d="m432.6 506v-15.2-15.2-15.2-15.2-15.3h15.2v-15.2h15.2v-15.2h15.2v-15.2h15.3v-15.2-15.2-15.2h15.2v-15.2h-15.2-15.3v15.2 15.2 15.2h-15.2v15.2h-15.2v15.2h-15.2v15.2h-15.2v15.2 15.3 15.2 15.2 15.2 15.2 15.2h15.2 15.2v-15.2z"/><path d="m523.9 490.8h15.2v15.2h-15.2z"/><path d="m584.7 490.8h15.2 15.2v15.2h15.3 15.2 15.2 15.2 15.2 15.2 15.2 15.2 15.2 15.3 15.2 15.2 15.3 15.2 15.2 15.2 15.2 15.2v-15.2h15.3 15.2 15.2 15.2v15.2 15.2h15.2v-15.2-15.2-15.2-15.2-15.2-15.3h-15.2v-15.2h-15.2v15.2 15.3h15.2v15.2 15.2h-15.2-15.2-15.2-15.3-15.2v15.2h-15.2-15.2-15.2-15.2-15.2-15.2-15.2-15.3-15.2-15.2-15.2-15.2-15.3-15.2-15.2-15.2v-15.2h-15.3-15.2-15.2-15.2v15.2z"/><path d="m554.3 460.4h15.2v15.2h-15.2z"/><path d="m539.1 460.4h15.2v-15.2h-15.2-15.2v15.2z"/><path d="m736.8 445.2v-15.3-15.2-15.2h-15.2v15.2 15.2h-15.2v15.3h15.2z"/><path d="m919.4 399.5v-15.2h-15.2-15.3-15.2v15.2h15.2 15.3v15.2h15.2 15.2v-15.2z"/><path d="m843.3 399.5h-15.2v15.2h15.2 15.2 15.2v-15.2h-15.2z"/><path d="m782.5 399.5h-15.2v15.2 15.2 15.3h15.2 15.2v-15.3h-15.2v-15.2z"/><path d="m630.4 399.5h-15.3-15.2v15.2h15.2 15.3 15.2 15.2v-15.2h-15.2z"/><path d="m812.9 384.3h-15.2v15.2h15.2 15.2v-15.2z"/><path d="m706.4 384.3v-15.2h-15.2v15.2h-15.2-15.2v15.2h15.2 15.2 15.2z"/><path d="m919.4 369.1h15.2v15.2h-15.2z"/><path d="m782.5 369.1h15.2v15.2h-15.2z"/><path d="m736.8 369.1h15.2v15.2h-15.2z"/><path d="m934.6 353.9h15.2v15.2h-15.2z"/><path d="m767.3 353.9h-15.3v15.2h15.3 15.2v-15.2z"/><path d="m417.4 369.1h15.2 15.2v-15.2-15.2h-15.2v15.2h-15.2-15.2v15.2z"/><path d="m949.8 338.7h15.2v15.2h-15.2z"/><path d="m828.1 353.9h15.2v-15.2h-15.2v-15.2h-15.2-15.2-15.2-15.2-15.3v15.2h15.3 15.2 15.2 15.2v15.2z"/><path d="m965 323.5h15.2v15.2h-15.2z"/><path d="m371.8 293h-15.2v15.2 15.3h15.2v-15.3z"/><path d="m417.4 277.8h-15.2-15.2v15.2h15.2 15.2 15.2v-15.2-15.2-15.2h-15.2v15.2z"/><path d="m356.6 262.6h-15.3v15.2 15.2h15.3v-15.2z"/><path d="m721.6 247.4h15.2v15.2h-15.2z"/><path d="m371.8 247.4v-15.2-15.2h-15.2v15.2 15.2 15.2h15.2z"/><path d="m447.8 247.4v15.2h15.2v-15.2-15.2-15.2h-15.2v15.2z"/><path d="m402.2 232.2h-15.2v15.2h15.2 15.2v-15.2z"/><path d="m949.8 217h15.2v15.2h-15.2z"/><path d="m934.6 201.8h15.2v15.2h-15.2z"/><path d="m432.6 201.8h15.2v15.2h-15.2z"/><path d="m387 201.8v-15.2h-15.2v15.2 15.2h15.2z"/><path d="m691.2 171.3v-15.2h-15.2-15.2-15.2-15.2-15.3-15.2v15.2h-15.2v15.3h-15.2-15.2-15.2v15.2 15.2 15.2h-15.2v15.2 15.2h-15.2-15.2v15.2h15.2 15.2 15.2v-15.2-15.2h15.2v-15.2-15.2-15.2h15.2 15.2 15.2v-15.2h15.2 15.3v-15.3h15.2 15.2 15.2v15.3h15.2 15.2v-15.3z"/><path d="m797.7 140.9h-15.2-15.2-15.3v15.2h-15.2v15.2 15.3h-15.2-15.2v15.2h-15.2-15.2-15.2v15.2h15.2 15.2 15.2 15.2 15.2 15.2v15.2 15.2h15.3 15.2v15.2h15.2v-15.2-15.2h15.2 15.2 15.2v-15.2h-15.2-15.2-15.2-15.2v15.2h-15.2v-15.2-15.2h-15.3v-15.2-15.3h15.3v-15.2h15.2v15.2h15.2 15.2v-15.2h-15.2z"/><path d="m785.3 49.7h-2.8-15.2v-.2h-15.3-15.2v15.2h-15.2v15.3h-15.2-15.2-15.2v-15.3-15.2h-15.2v-15.2h-15.2-15.2-15.3v15.2h-15.2-15.2-15.2v15.2 15.3h-15.2-15.2-15.2v15.2h-15.2-15.2-15.3v15.2h-15.2v15.2h-15.2v15.2 15.2h-15.2-15.2v15.2h-15.2-15.2v15.2h15.2 15.2v15.2h15.2v-15.2-15.2h15.2 15.2v-15.2-15.2h15.2v-15.2h15.3v-15.2h15.2 15.2 15.2v-15.2h15.2 15.2 15.2v-15.2-15.3h15.2 15.2 15.3v-15.2h15.2v15.2h15.2v15.3 15.2h15.2 15.2v15.2h15.2v15.2h15.2v-15.2-15.2h15.2v-15.2h15.2v-15.1h15.3v15.2h15.2v-15.2h2.8 42.6v-15.2z"/><path d="m257.2 620.1v7.6h21.4v-7.6-7.6h-21.4z" fill="#fff"/><path d="m1147.6 293.1v-6.8-15.2-.8-7.6h-76.1v-7.6-7.6h-15.2-45.6v-15.2h-8.2-7-15.2v-7.6-7.5-15.3h-15.2v-15.2h-15.2v-15.1h-15.2v-15.3h-15.2v-15.2h-15.2v-10.5-19.8-6.1-1.7-7.7h-15.3v-7.7-7.7h-15.2v-7.7-7.7h-30.4v-.1-15.4h-15.2v-7.1-7.7h-106.6v7.7 7.3h-15.2v7.7 7.7h-15.2v-7.5-22.8h-7.6-7.6v-7.6-7.7h-76v7.7 7.7h-46v7.7 7.1.5 7.1 7.7h-45.3v7.7 7.7h-45.7v7.7 7.7h-15.2v7.7 7.7h-15.2v7.7 1.1 6.5 7.7 7.1h-30.4v7.7 7.7h-30.4v7.7 1.2 6.4h-15.2v22.9 7.6h-15.2v15.3 15.1 15.1h-15.2v15.3 15.2 15.2 15.4h15.2v7.6 7.5 15.3h15.2v7.5 7.5h-6-9.3-15.2v22.7 7.6h-15.2v15.2h-15.2v34.2 26.6 7.6 7.6 15.2h15.2v15.3 30.4h15.2v7.6 22.8h-8.2-7v15.2h-15.2-4-11.2v15.2h-15.2v15.2h-8.8-6.4v30.4 15.2h-15.2-5-10.3v15.2h-15.2v15.2h-15.2v15.4h-15.2v15.2h-15.2v15.2h-15.2v15.2h-15.2v22.8 7.6h-15.2v15.2h-7.6-7.6v15.2h-15.2v22.8 7.6h-15.2v22.8 7.6h-15.2v38 38h15.2 15.2 15.2 973.5v-7.6-7.6-22.8-3.8-19.1-7.6-7.6h-15.2v-7.6-7.6-7.6-7.6h-15.2v-7.6-7.6h-15.1v-7.6-3.3-4.3h-15.2v-8.3-6.7h-15.2v-10-5.2h-15.3v-10.3-4.9h-15.3v-7.6-1.8-5.8h-15.2v-12.3-2.9h-15.2v-7.6-6.8-.8h-15.2v-.1-7.6-7.6h-15.2v-7.6-6.3-1.3h-30.4v-.1-7.6-3.5-4.1h-30.4v-7.5-2.4-5.2-5-10.2-.1h30.4v-3.4-4.1-7.6-.1h15.2v-2.9-4.7-7.6h15.2v-4.1-3.5-7.6h30.4v-5.5-2-7.6-.1h15.2v-2-5.6-7.6h15.2v-5.9-16.9-7.6h7.6 7.6v-118.7-2.9h-15.2v-7.6-7.6h-15.2v-7.6-7.6h15.2v-3.3-11.9h15.2v-5.5-9.9h15.2v-4.2-11h15.2v-3.8-3.8-7.6h60.8v-4.2-3.4-7.6h76.1v-7.6-7.6zm-45.6-6.8v6.8h-30.4-15.2v7.6 7.6h-45.6-15.2v7.6 7.6h-15.3v6.5 1.1 7.6h-15.2v6.2 1.4 7.6h-15.2v7.6 7.6h-15.2v4.5 3.1 7.6h-15.2v7.6 7.6h15.2v7.6 7.6h15.2v7.6 7.6h15.2v91.3h-15.3v5.9 1.7 7.6 7.6 7.6h-15.2v7.6 7.6h-15.2v7.6 7.6.1h-30.4v3.8 3.8 7.6h-15.2v2.1 5.5 7.6h-15.2v6.2 1.4 7.6.1h-30.4v3 4.6 7.6.1h-15.2v10.2 5h-30.4v7.6 7.6h45.6v5 2.6 7.6h30.4v.1 7.6 7.6h15.2 15.2v7.6 7.6h15.3v15.3h15.2v7.6 7.6h15.2v7.6 7.6h15.2v7.6 7.6h15.1v7.6 7.6h15.2v7.6 7.6h15.2v15.2h15.2v7.6 7.6h15.2v7.6 7.6h15.2v7.6 7.6 7.6 7.6h15.2v19.1 3.8 22.8h-958.1-15.2-15.2v-22.8-22.8h15.2v-22.8-7.6h15.2v-22.8-7.6h15.2v-15.2h15.2v-15.2h15.2v-22.8-7.6h15.2v-15.2h15.2v-15.2h15.2v-15.2h15.2v-15.7h15.2v-15.2h15.2v-15.2h15.2 4.9 10.3v-15.2h15.2v-7.6-7.6h-15.2v-15.2h15.2v-15.2h15.2v-15.2h15.2 15.2v-15.2h15.2 15.2v-15.2-15.2h-15.2v-7.6-22.8h-15.2v-15.2-30.4h-15.2v-7.6-7.6-26.8-19h15.2v-15.2h15.2v-22.8-7.5h15.2v.1h15.2v-22.8-7.5-15.3h-15.2v-7.5-7.6h.1v-15.4h-15.3v-15.2-15.2h15.2v-15.3-15.1-15.1h15.2v-15.3-7.6-7.6h15.2v-11.1-4.4h30.4v-7.7-7.7h30.4v-7.7-.6-7.1-7.1-7.7h15.2v-7.7-7.7h15.4v-7.7-7.7h45.7v-7.7-7.7h45.3v-7.7-7.7-7.7-6.7h46v-7.7-7.7h45.5v7.7 7.7h15.2v7.5 7.5 7.7 7.7h15.3 30.4v-7.7-7.7h15.2v-7.7-7.3h30.4v6.7 8.2h15.2v-8.2-6.7h30.4v7.2 7.8h15.2v15.3h15.2 15.2v7.7 7.7h15.2v7.7 7.7h15.2v19.8 25.7h15.4v15.2h15.2v15.2h15.2v15.1h15.2v15.1h.1v.2h15.1v7.5 22.8h15.2 15.2v15.2h15.2 45.6v7.6 4.4 3.2h45.6zm30.4 0v6.8h-15.2v-6.8-8.5h15.2z" fill="#fff"/><path d="m1041.2 886.3v19 11.4h-479.3-479.2v-15.2-15.2h-15.2v15.2 15.2 5.1 6.2 3.9h494.4 494.4v-7.6-19-19z"/><path d="m812.9 597.3h-15.2-15.2-15.2-15.3-15.2-15.2-15.2v-15.3h-15.2-15.2-15.2-15.2-15.2-15.3-15.2v-15.2h-15.2-15.2-15.2-15.2v-15.2h-15.2-15.2-15.2v-15.2-15.2h-15.3v-15.2h-15.2v-76.1h15.2v-7.6-7.6h15.3v-10.3-4.9-15.2h-7.7-7.6v15.2h-15.2v2.7 12.5h-15.2v7.6 7.6h-15.2v76.1h15.2v15.2h15.2v15.2 15.2h15.2v15.2h15.3 15.2v15.2 15.3h15.2v15.2h15.2 15.2v15.2h15.2v-15.2h15.2 15.2v15.2h15.2v15.3h15.3v15.2h15.2 15.2 15.2v-15.2h15.2 15.2 15.2 15.2v-15.2h15.2 15.3v-15.2h15.2 15.2 15.2 15.2 15.2v-15.2h-15.2-15.2z" fill="#9b9b9b"/><path d="m676 369.1h15.2v15.2h-15.2z" fill="#9b9b9b"/><path d="m919.4 353.9v15.2h-15.2v15.2h15.2v-15.2h15.2v-15.2z" fill="#9b9b9b"/><path d="m873.7 353.9h-15.2-15.2-15.2-15.2v-15.2h-15.2-15.2-15.2-15.3-15.2-15.2v15.2h-15.2v15.2h15.2 15.2 15.2v-15.2h15.3 15.2v15.2h15.2v15.2h15.2 15.2v15.2h15.2 15.2 15.2v-15.2h15.2v-15.2h-15.2z" fill="#9b9b9b"/><path d="m569.5 338.7h15.2v15.2h-15.2z" fill="#9b9b9b"/><path d="m447.8 293h15.2v-15.2-15.2h-15.2v-45.6h-15.2v-15.2h-15.2v-15.2h-30.4v30.4h-15.2v45.6h-15.2v30.4h15.2v30.4h15.2v15.3h15.2v15.2h30.4v-15.2h15.2zm-15.2 15.3h-15.2v-15.2h-30.4v-15.2h30.4v-30.4h-30.4v-15.2h30.4v15.2h15.2z" fill="#9b9b9b"/><path d="m584.7 380.6v3.7h22.8 7.6v15.2h15.3 15.2v-15.2h-15.2v-15.2h-15.3-7.6-7.6v-15.2h-15.2v15.2z" fill="#9b9b9b"/><path d="m919.4 186.6v-15.2h-15.2-15.3v-15.3-15.2-15.2-15.2h-15.2v-15.2h-15.2v-15.2h-15.2-15.2v-15.2h-15.2v15.2 15.2h15.2 15.2v15.2h15.2v15.2h15.2v15.2 15.2h-15.2v-15.2h-15.2-15.2-15.2v15.2h15.2 15.2v15.3h15.2 15.2v1.5 13.7 15.2h15.2v-15.2h15.3v15.2h15.2 15.2v-15.2z"/></svg>